<svg width="71" height="71" viewBox="0 0 71 71" fill="none" xmlns="http://www.w3.org/2000/svg">
<path d="M62.03 58.7965C57.3868 64.1924 51.2088 68.0441 44.3199 69.838C37.4311 71.6319 30.1591 71.2825 23.4739 68.8366C16.7888 66.3906 11.0084 61.9643 6.90387 56.1482C2.79936 50.3321 0.565902 43.4028 0.501435 36.2845C0.436969 29.1662 2.54456 22.1975 6.54306 16.308C10.5415 10.4186 16.2408 5.88833 22.8806 3.3217C29.5203 0.755068 36.7849 0.27407 43.705 1.94287C50.6252 3.61168 56.872 7.35093 61.6121 12.6618L56.3024 17.4008C52.5262 13.1699 47.5496 10.191 42.0366 8.86151C36.5236 7.53204 30.7362 7.91523 25.4466 9.95996C20.157 12.0047 15.6166 15.6137 12.4312 20.3056C9.24578 24.9975 7.56675 30.5492 7.61811 36.22C7.66947 41.8909 9.44877 47.4112 12.7187 52.0447C15.9885 56.6781 20.5935 60.2043 25.9193 62.1529C31.2451 64.1015 37.0384 64.3798 42.5265 62.9507C48.0145 61.5216 52.9363 58.4531 56.6353 54.1544L62.03 58.7965Z" fill="url(#paint0_linear_579_899)"/>
<path d="M61.2071 36.6746C61.5976 36.2841 61.5976 35.6509 61.2071 35.2604L54.8431 28.8965C54.4526 28.5059 53.8195 28.5059 53.4289 28.8965C53.0384 29.287 53.0384 29.9202 53.4289 30.3107L59.0858 35.9675L53.4289 41.6244C53.0384 42.0149 53.0384 42.6481 53.4289 43.0386C53.8195 43.4291 54.4526 43.4291 54.8431 43.0386L61.2071 36.6746ZM29.5 36.9675H60.5V34.9675H29.5V36.9675Z" fill="#00F3B6"/>
<defs>
<linearGradient id="paint0_linear_579_899" x1="35.5" y1="0.967529" x2="35.5" y2="70.9675" gradientUnits="userSpaceOnUse">
<stop stop-color="#00FDBB"/>
<stop offset="1" stop-color="#008BD1"/>
</linearGradient>
</defs>
</svg>
