<svg width="83" height="83" viewBox="0 0 83 83" fill="none" xmlns="http://www.w3.org/2000/svg">
<path d="M72.5779 68.0053C67.1389 74.3262 59.9017 78.8383 51.8319 80.9397C43.7621 83.041 35.2435 82.6318 27.4123 79.7665C19.5811 76.9013 12.8098 71.7162 8.00167 64.9031C3.19354 58.0899 0.577199 49.9727 0.501681 41.6341C0.426164 33.2956 2.89506 25.1322 7.57901 18.2331C12.263 11.334 18.9392 6.02719 26.7172 3.02056C34.4952 0.0139341 43.0051 -0.549521 51.1116 1.40536C59.2181 3.36025 66.5358 7.74052 72.0885 13.9618L65.8686 19.5133C61.445 14.557 55.6153 11.0674 49.1572 9.51005C42.6991 7.95268 35.9196 8.40156 29.7232 10.7968C23.5268 13.1921 18.2081 17.4198 14.4766 22.916C10.7451 28.4123 8.77819 34.9156 8.83836 41.5586C8.89852 48.2016 10.9828 54.6683 14.8133 60.096C18.6437 65.5238 24.0381 69.6545 30.2769 71.9371C36.5157 74.2198 43.3022 74.5458 49.731 72.8717C56.1599 71.1976 61.9254 67.603 66.2585 62.5674L72.5779 68.0053Z" fill="url(#paint0_linear_579_918)"/>
<path d="M47.8824 51.6255C47.0573 51.6786 46.5091 51.1646 45.9723 50.6051C45.7277 50.349 45.5361 50.0019 45.0334 50.2409C44.5668 50.459 44.6143 50.8099 44.6086 51.1893C44.5687 53.2909 43.9789 53.8656 41.8659 53.8675C41.1698 53.8675 40.4737 53.8883 39.7794 53.8561C38.5636 53.803 37.8049 53.0215 37.7537 51.8038C37.7385 51.4567 37.7841 51.1039 37.7347 50.7625C37.7197 50.6412 37.6711 50.5265 37.5943 50.4314C37.5176 50.3363 37.4159 50.2644 37.3005 50.224C37.1852 50.1836 37.0608 50.1762 36.9415 50.2026C36.8222 50.2291 36.7126 50.2883 36.6251 50.3737C36.4089 50.5633 36.2249 50.7796 36.0182 50.973C35.0698 51.8664 33.9318 51.8948 32.9701 51.011C32.3214 50.4116 31.6936 49.7838 31.0942 49.1351C30.2027 48.1715 30.2312 47.0714 31.1378 46.1003C31.3086 45.9106 31.4887 45.7361 31.6689 45.5597C31.8833 45.3454 31.999 45.131 31.8586 44.801C31.7107 44.4368 31.4603 44.361 31.1132 44.378C30.7974 44.3998 30.4806 44.3998 30.1648 44.378C29.6545 44.3537 29.1731 44.1342 28.8201 43.7649C28.4671 43.3957 28.2694 42.9049 28.2681 42.394C28.2377 41.4779 28.2453 40.5618 28.2681 39.6456C28.2927 38.352 29.0268 37.5971 30.3014 37.5118C30.5855 37.4928 30.8704 37.489 31.1549 37.5004C31.3109 37.5214 31.4693 37.4864 31.6019 37.4016C31.7346 37.3169 31.8329 37.1879 31.8795 37.0376C32.0122 36.7076 31.8965 36.5046 31.6632 36.3017C31.4963 36.1556 31.3427 35.9963 31.191 35.837C30.2046 34.8051 30.1895 33.6709 31.1644 32.6599C31.7334 32.07 32.3157 31.4877 32.9094 30.9206C33.9223 29.957 34.9845 29.9551 36.0106 30.8978C36.2211 31.0875 36.426 31.2772 36.6195 31.4953C36.6983 31.5941 36.8099 31.6615 36.9341 31.6851C37.0584 31.7088 37.1869 31.6872 37.2966 31.6243C37.4321 31.5803 37.5501 31.4942 37.6333 31.3786C37.7165 31.2629 37.7607 31.1237 37.7594 30.9813C38.0743 28.121 38.245 27.9768 41.1186 27.9749H42.0669C43.8897 27.9844 44.5801 28.6748 44.6162 30.4767C44.6162 30.8788 44.4265 31.3492 45.0278 31.5996C45.629 31.85 45.8225 31.3549 46.1108 31.0856C47.4385 29.847 48.4021 29.8489 49.6957 31.1368C50.1661 31.6053 50.644 32.0719 51.1012 32.548C52.1823 33.6614 52.1861 34.7482 51.122 35.8559C51.012 35.9697 50.9058 36.0873 50.7901 36.1935C50.5264 36.4306 50.295 36.6431 50.4942 37.0717C50.6934 37.5004 51.0044 37.4719 51.3553 37.4757C51.6719 37.4703 51.9886 37.4829 52.3037 37.5137C53.3317 37.6351 54.043 38.3615 54.0829 39.3934C54.1208 40.3721 54.1151 41.3527 54.0829 42.3314C54.0563 43.4998 53.2748 44.2813 52.1368 44.3647C51.8845 44.3837 51.6304 44.3742 51.3781 44.3742C51.0367 44.3742 50.7047 44.3192 50.5094 44.7536C50.314 45.1879 50.5435 45.3985 50.7939 45.6488C51.0237 45.865 51.241 46.0943 51.4445 46.3355C52.0552 47.1037 52.1178 48.126 51.4786 48.8657C50.7578 49.7003 49.9441 50.4552 49.1456 51.2177C48.9747 51.3693 48.7742 51.4839 48.5567 51.5541C48.3393 51.6243 48.1097 51.6486 47.8824 51.6255ZM42.6473 50.2788C42.4008 49.3627 42.9148 49.0137 43.8688 48.4788C45.5152 47.5551 46.5243 47.9098 47.4992 49.2849C47.7268 49.6074 47.9544 49.5808 48.2731 49.3134C50.1016 47.777 50.1092 47.796 48.4343 46.1477C48.3694 46.0802 48.3004 46.0169 48.2276 45.958C47.8805 45.702 47.8615 45.4269 48.1176 45.0798C48.3007 44.8595 48.4305 44.5998 48.4969 44.3211C48.7606 42.5723 49.8057 42.045 51.4388 42.3523C51.9869 42.4547 52.1747 42.1626 52.1311 41.641C52.1102 41.3906 52.1311 41.1365 52.1311 40.8823C52.1159 39.2189 52.2714 39.4161 50.7237 39.4958C49.6407 39.5508 48.9161 39.3858 48.7625 38.1567C48.6973 37.7809 48.5403 37.4271 48.3053 37.1267C47.8653 36.5368 47.9374 36.1423 48.495 35.6264C49.9669 34.2532 49.9138 34.2456 48.5519 32.8116C48.0512 32.2824 47.6927 32.1819 47.2489 32.8116C46.42 33.98 45.4621 34.4675 44.1723 33.4262C43.9318 33.2721 43.6567 33.1802 43.3719 33.1587C42.7498 33.0601 42.6132 32.7206 42.6284 32.1155C42.6739 29.9001 42.6492 29.9248 40.4433 29.9646C39.8345 29.976 39.6144 30.2112 39.7188 30.7461C40.0241 32.3166 39.4949 33.1644 37.858 33.6007C36.4317 33.98 36.4829 34.1697 35.3923 33.0848C34.4723 32.1648 34.4723 32.1648 33.5638 33.0848C32.4257 34.2228 32.3935 34.2664 33.5885 35.3609C34.2865 35.9982 34.6127 36.5331 33.9318 37.3885C33.6583 37.7776 33.4814 38.2262 33.4158 38.6972C33.2964 39.3744 32.9473 39.5072 32.3119 39.4977C30.0472 39.4673 30.0624 39.4977 30.2122 41.7358C30.2464 42.2328 30.4342 42.4623 30.9008 42.3618C32.6249 41.9957 33.4177 42.7222 33.9356 44.3875C34.2428 45.37 34.349 45.884 33.524 46.5783C32.3442 47.5684 32.3973 47.6328 33.486 48.7254C34.4591 49.7022 34.5236 49.7591 35.4473 48.6761C36.1661 47.8339 36.7086 47.8206 37.7841 48.1867C39.4266 48.7443 40.0184 49.5903 39.715 51.2215C39.6239 51.709 39.8914 51.91 40.375 51.8721C40.6576 51.8512 40.9441 51.8721 41.2267 51.8721C42.7763 51.8323 42.6416 52.0769 42.653 50.2788H42.6473Z" fill="#01FEBE"/>
<path d="M36.1479 22.5178C35.9225 22.3309 35.7084 22.1308 35.5068 21.9184C35.3407 21.7444 35.2469 21.5138 35.2444 21.2733C35.242 21.0328 35.331 20.8003 35.4935 20.623C35.6274 20.4392 35.8276 20.3147 36.0516 20.2758C36.2756 20.2368 36.506 20.2865 36.6941 20.4143C37.798 21.1465 38.8621 21.9317 39.9509 22.6904C40.2999 22.9332 40.0495 23.121 39.9186 23.305C39.3211 24.1585 38.7104 25.012 38.1034 25.8523C37.7089 26.4042 37.2973 27.0264 36.5045 26.5484C35.6699 26.0458 36.0246 25.3762 36.4172 24.7086C36.0379 24.5454 35.7249 24.7655 35.4404 24.8793C29.0995 27.3981 25.344 32.0073 24.2837 38.7673C24.1699 39.4975 23.9688 40.131 23.0868 40.004C22.2048 39.8769 22.1707 39.1789 22.2902 38.4714C23.6179 30.6397 27.9805 25.3705 35.5011 22.7568C35.6794 22.6999 35.852 22.6354 36.1479 22.5178Z" fill="#01FEBE"/>
<path d="M59.6677 35.8538C59.8574 35.6395 60.013 35.4366 60.195 35.2677C60.3522 35.1071 60.5631 35.0099 60.7874 34.9949C61.0117 34.9798 61.2336 35.0479 61.4109 35.1862C61.8225 35.465 62.0159 35.9278 61.7485 36.3432C61.0144 37.4813 60.2159 38.5852 59.4307 39.691C59.1689 40.0608 58.9299 39.763 58.7137 39.6113C57.9133 39.0423 57.1185 38.4733 56.3219 37.9042C55.7434 37.4926 55.0681 37.0678 55.5765 36.2389C56.0848 35.41 56.7524 35.7287 57.5263 36.2958C57.066 34.4159 56.2333 32.6474 55.0776 31.0949C52.1832 27.1231 48.3138 24.7313 43.4221 24.0466C43.2969 24.0276 43.1717 24.0048 43.0427 23.984C42.3826 23.8778 41.9919 23.5212 42.0943 22.8232C42.1892 22.1631 42.6634 21.9544 43.2741 22.017C45.0051 22.185 46.7012 22.6108 48.3062 23.2803C53.6386 25.5286 57.2715 29.3815 59.2049 34.8391C59.3093 35.1369 59.4117 35.4347 59.5179 35.7306C59.535 35.7552 59.5691 35.7704 59.6677 35.8538Z" fill="#01FEBE"/>
<path d="M46.0854 59.3793C46.3756 59.6126 46.552 59.7435 46.7132 59.8895C47.1855 60.3163 47.2595 60.8379 46.8706 61.3159C46.4818 61.7939 45.9886 61.7863 45.5126 61.4563C44.5016 60.7583 43.5153 60.0185 42.4948 59.3319C42.0662 59.0436 42.3052 58.8331 42.4815 58.5732C43.0695 57.7513 43.6563 56.9294 44.2417 56.1074C44.6344 55.5555 45.0289 54.939 45.8369 55.381C46.6449 55.8229 46.3699 56.4735 45.9848 57.2398C48.3653 56.5799 50.56 55.376 52.3959 53.7232C55.609 50.8629 57.5266 47.2951 58.0861 43.0161C58.1772 42.3105 58.4351 41.7168 59.2242 41.8211C60.0644 41.933 60.1858 42.5798 60.0625 43.3385C58.7348 51.3333 54.2471 56.6328 46.5368 59.1802C46.4249 59.2181 46.3206 59.275 46.0854 59.3793Z" fill="#01FEBE"/>
<path d="M22.7775 45.9464C22.5677 46.1952 22.3415 46.4297 22.1003 46.6482C21.9315 46.7967 21.7127 46.8758 21.488 46.8699C21.2632 46.8639 21.049 46.7732 20.8883 46.616C20.5089 46.2954 20.3667 45.8573 20.6474 45.4324C21.3795 44.3285 22.1648 43.2587 22.9235 42.17C23.2023 41.7717 23.411 42.0865 23.6177 42.2307C24.5225 42.8642 25.4139 43.5167 26.3206 44.1483C26.8896 44.5409 27.1893 45.0246 26.7663 45.6657C26.3756 46.2575 25.8293 46.2063 25.2755 45.8554C25.133 45.7841 24.9868 45.7208 24.8373 45.6657C25.5107 48.1051 26.7485 50.3519 28.4506 52.2246C31.1708 55.3146 34.9257 57.305 39.0098 57.822C39.7477 57.9244 40.3736 58.1122 40.2446 59.0017C40.1157 59.8913 39.4214 59.8894 38.7121 59.7756C31.0871 58.5598 25.928 54.3225 23.1834 47.1205C23.0506 46.7791 22.9406 46.4206 22.7775 45.9464Z" fill="#01FEBE"/>
<path d="M41.2365 35.0913C42.0042 35.0962 42.7635 35.2527 43.4707 35.5517C44.1779 35.8507 44.8192 36.2863 45.3577 36.8336C45.8962 37.3809 46.3214 38.0292 46.6088 38.7411C46.8963 39.4531 47.0404 40.2148 47.0329 40.9826C47.0064 44.1805 44.2845 46.8625 41.1208 46.7923C39.5696 46.7649 38.0917 46.1278 37.0069 45.0188C35.922 43.9098 35.3175 42.4182 35.3243 40.8669C35.3327 40.0993 35.4924 39.3409 35.7941 38.635C36.0959 37.9292 36.5339 37.2898 37.083 36.7534C37.6321 36.217 38.2816 35.794 38.9943 35.5088C39.7069 35.2236 40.4689 35.0817 41.2365 35.0913ZM45.0148 40.9105C45.0088 40.1526 44.7784 39.4135 44.3526 38.7865C43.9269 38.1595 43.325 37.6727 42.6228 37.3875C41.9206 37.1023 41.1497 37.0316 40.4073 37.1842C39.665 37.3368 38.9845 37.706 38.4517 38.2451C37.919 38.7841 37.558 39.469 37.4141 40.2131C37.2703 40.9572 37.3502 41.7272 37.6436 42.426C37.9371 43.1247 38.431 43.7209 39.0631 44.1392C39.6951 44.5574 40.4368 44.7791 41.1947 44.7761C42.2137 44.7696 43.1885 44.3587 43.9048 43.6339C44.6211 42.9091 45.0203 41.9295 45.0148 40.9105Z" fill="#01FEBE"/>
<defs>
<linearGradient id="paint0_linear_579_918" x1="41.5" y1="0.262817" x2="41.5" y2="82.2628" gradientUnits="userSpaceOnUse">
<stop stop-color="#00FDBB"/>
<stop offset="1" stop-color="#008BD1"/>
</linearGradient>
</defs>
</svg>
