<svg width="83" height="83" viewBox="0 0 83 83" fill="none" xmlns="http://www.w3.org/2000/svg">
<path d="M72.5779 68.0053C67.1389 74.3262 59.9017 78.8383 51.8319 80.9397C43.7621 83.041 35.2435 82.6318 27.4123 79.7665C19.5811 76.9013 12.8098 71.7162 8.00167 64.9031C3.19354 58.0899 0.577199 49.9727 0.501681 41.6341C0.426164 33.2956 2.89506 25.1322 7.57901 18.2331C12.263 11.334 18.9392 6.02719 26.7172 3.02056C34.4952 0.0139341 43.0051 -0.549521 51.1116 1.40536C59.2181 3.36025 66.5358 7.74052 72.0885 13.9618L65.8686 19.5133C61.445 14.557 55.6153 11.0674 49.1572 9.51005C42.6991 7.95268 35.9196 8.40156 29.7232 10.7968C23.5268 13.1921 18.2081 17.4198 14.4766 22.916C10.7451 28.4123 8.77819 34.9156 8.83836 41.5586C8.89852 48.2016 10.9828 54.6683 14.8133 60.096C18.6437 65.5238 24.0381 69.6545 30.2769 71.9371C36.5157 74.2198 43.3022 74.5458 49.731 72.8717C56.1599 71.1976 61.9254 67.603 66.2585 62.5674L72.5779 68.0053Z" fill="url(#paint0_linear_579_919)"/>
<path d="M30.8656 54.1215C30.8095 51.5933 31.0201 49.0421 30.429 46.5548C29.9386 44.4863 29.2096 42.4829 28.4396 40.5012C27.2764 37.5082 27.1806 34.514 28.2225 31.4572C30.0804 26.0101 35.9999 22.449 41.6691 23.4232C47.8989 24.4945 52.0513 28.6264 53.1175 34.8383C53.3205 36.0182 53.2579 37.2146 53.2656 38.4059C53.264 38.8096 53.3376 39.2102 53.4826 39.587C54.2488 41.5712 54.9817 43.5669 55.7657 45.5435C55.9814 46.0887 55.8461 46.1819 55.3149 46.1692C54.273 46.1373 53.2298 46.1526 52.1866 46.1628C51.4307 46.1692 51.2469 46.3518 51.2405 47.1141C51.2303 48.4548 51.2405 49.7955 51.2405 51.1362C51.2405 52.971 50.219 53.9682 48.3765 53.9452C47.2056 53.9338 46.0347 53.9542 44.8651 53.9069C43.0596 53.8342 41.7279 55.111 41.8862 56.8437C41.9667 57.7299 41.8773 58.6313 41.9054 59.5251C41.9194 59.9759 41.8185 60.1533 41.3142 60.1495C37.9518 60.1265 34.5894 60.1265 31.227 60.1495C30.7341 60.1495 30.6945 59.9465 30.6984 59.5417C30.7175 57.7337 30.7073 55.9257 30.7073 54.1176L30.8656 54.1215Z" fill="#00F9BC"/>
<defs>
<linearGradient id="paint0_linear_579_919" x1="41.5" y1="0.262817" x2="41.5" y2="82.2628" gradientUnits="userSpaceOnUse">
<stop stop-color="#00FDBB"/>
<stop offset="1" stop-color="#008BD1"/>
</linearGradient>
</defs>
</svg>
