<svg width="83" height="83" viewBox="0 0 83 83" fill="none" xmlns="http://www.w3.org/2000/svg">
<path d="M72.5779 68.0053C67.1389 74.3262 59.9017 78.8383 51.8319 80.9397C43.7621 83.041 35.2435 82.6318 27.4123 79.7665C19.5811 76.9013 12.8098 71.7162 8.00167 64.9031C3.19354 58.0899 0.577199 49.9727 0.501681 41.6341C0.426164 33.2956 2.89506 25.1322 7.57901 18.2331C12.263 11.334 18.9392 6.02719 26.7172 3.02056C34.4952 0.0139341 43.0051 -0.549521 51.1116 1.40536C59.2181 3.36025 66.5358 7.74052 72.0885 13.9618L65.8686 19.5133C61.445 14.557 55.6153 11.0674 49.1572 9.51005C42.6991 7.95268 35.9196 8.40156 29.7232 10.7968C23.5268 13.1921 18.2081 17.4198 14.4766 22.916C10.7451 28.4123 8.77819 34.9156 8.83836 41.5586C8.89852 48.2016 10.9828 54.6683 14.8133 60.096C18.6437 65.5238 24.0381 69.6545 30.2769 71.9371C36.5157 74.2198 43.3022 74.5458 49.731 72.8717C56.1599 71.1976 61.9254 67.603 66.2585 62.5674L72.5779 68.0053Z" fill="url(#paint0_linear_579_920)"/>
<path d="M50.508 41.2822C50.4958 43.6729 49.5358 45.9612 47.8386 47.6449C46.1413 49.3287 43.8455 50.2704 41.4548 50.2636C36.4987 50.2472 32.4735 46.1689 32.4923 41.1916C32.5149 36.255 36.5979 32.2205 41.5431 32.2478C46.4883 32.2752 50.5267 36.3433 50.508 41.2822ZM41.4728 47.249H42.9168C43.3979 47.249 43.8798 47.249 44.3609 47.249C45.5566 47.2427 46.3001 46.4906 46.2993 45.2918C46.2993 43.6132 46.2993 41.9351 46.2993 40.2576C46.2993 39.1642 45.819 38.5394 44.7467 38.2856C44.5538 38.2403 44.489 38.1677 44.4944 37.9795C44.503 37.6413 44.5069 37.3023 44.4944 36.9642C44.4241 35.3647 43.2206 34.1526 41.6251 34.0659C40.1178 33.9839 38.8057 35.0664 38.5457 36.6002C38.4676 37.0399 38.5129 37.4828 38.5082 37.924C38.5082 38.1286 38.4715 38.2411 38.2317 38.2942C37.2 38.5222 36.7088 39.1384 36.7033 40.2021C36.6939 41.9063 36.6939 43.6104 36.7033 45.3145C36.7103 46.5226 37.4507 47.2435 38.6652 47.2482C39.6 47.2521 40.5364 47.249 41.4728 47.249Z" fill="#00F6BC"/>
<path d="M33.4343 57.4614C32.5627 57.4614 31.6919 57.4614 30.8203 57.4614C30.7378 57.4576 30.6555 57.4726 30.5796 57.5052C30.5037 57.5378 30.4362 57.5872 30.3822 57.6496C29.8722 58.1885 29.1412 58.2049 28.6523 57.709C28.5368 57.5984 28.445 57.4654 28.3825 57.3182C28.3201 57.171 28.2883 57.0126 28.2891 56.8527C28.2899 56.6928 28.3233 56.5347 28.3872 56.3882C28.4511 56.2416 28.5442 56.1096 28.6609 56.0002C29.1506 55.5206 29.8808 55.548 30.3947 56.0783C30.4391 56.1325 30.4951 56.1762 30.5587 56.2059C30.6222 56.2356 30.6916 56.2507 30.7617 56.2501C32.4393 56.2501 34.1166 56.2519 35.7936 56.2555C36.0084 56.2555 36.0912 56.1938 36.0896 55.9681C36.0802 54.9404 36.0771 53.9134 36.0896 52.8856C36.0935 52.6513 35.9685 52.5732 35.7983 52.4881C34.3679 51.7626 33.089 50.771 32.03 49.5664C31.7177 49.2095 31.6864 48.8635 31.9582 48.6066C32.23 48.3496 32.5963 48.3942 32.9087 48.7487C33.9747 49.9662 35.2867 50.9439 36.7581 51.6173C37.1556 51.8008 37.3157 52.0679 37.3095 52.4998C37.2923 53.6963 37.3032 54.8927 37.2986 56.0923C37.2939 57.0037 36.83 57.4637 35.9311 57.4622H33.4319L33.4343 57.4614Z" fill="#00F6BC"/>
<path d="M56.1965 41.8587C55.3507 41.8587 54.5049 41.8587 53.6591 41.8587C53.1124 41.8587 52.8922 41.6526 52.8875 41.1098C52.8727 39.2139 52.3784 37.3525 51.4505 35.6991C51.11 35.0798 51.3724 34.6565 52.0893 34.6557C53.2866 34.6557 54.4838 34.6557 55.6819 34.6604C55.789 34.6693 55.8967 34.6526 55.9962 34.6119C56.0957 34.5712 56.1841 34.5075 56.2543 34.4261C56.7065 33.931 57.5039 33.9458 57.9678 34.4261C58.0807 34.5386 58.1699 34.6726 58.2302 34.8202C58.2904 34.9677 58.3206 35.1259 58.3188 35.2852C58.317 35.4446 58.2833 35.602 58.2197 35.7482C58.1561 35.8943 58.0639 36.0263 57.9485 36.1362C57.8332 36.2462 57.6969 36.3319 57.5479 36.3884C57.3988 36.4449 57.24 36.471 57.0807 36.4651C56.9214 36.4592 56.765 36.4215 56.6205 36.3542C56.476 36.2869 56.3465 36.1914 56.2395 36.0732C56.1746 35.995 56.0918 35.9336 55.9981 35.8943C55.9044 35.855 55.8026 35.839 55.7014 35.8475C54.8814 35.8569 54.0613 35.86 53.2413 35.8475C52.9773 35.8475 52.8844 35.8827 53.014 36.1693C53.6091 37.4743 53.9606 38.8771 54.0512 40.3085C54.0699 40.606 54.191 40.6646 54.4635 40.6623C55.9084 40.6506 57.3532 40.6623 58.7972 40.6568C59.0807 40.6568 59.3049 40.7349 59.4376 41.0059C59.547 41.2332 59.5024 41.4355 59.365 41.6307C59.2275 41.8259 59.0042 41.865 58.7746 41.8611C57.9155 41.8611 57.0564 41.8611 56.1973 41.8611L56.1965 41.8587Z" fill="#00F6BC"/>
<path d="M49.5448 25.0504C50.4038 25.0504 51.2629 25.0504 52.122 25.0504C52.2172 25.0583 52.3128 25.044 52.4016 25.0088C52.4903 24.9736 52.5697 24.9183 52.6335 24.8473C53.1373 24.3108 53.8706 24.31 54.3642 24.8145C54.4743 24.9257 54.5613 25.0575 54.6204 25.2023C54.6794 25.3472 54.7093 25.5023 54.7083 25.6587C54.7073 25.8151 54.6754 25.9698 54.6145 26.1139C54.5536 26.258 54.4648 26.3886 54.3533 26.4983C53.8644 26.9857 53.1224 26.9669 52.6179 26.4413C52.5634 26.379 52.4954 26.3299 52.4191 26.2977C52.3428 26.2655 52.2602 26.251 52.1775 26.2554C50.5374 26.2554 48.8973 26.2617 47.2573 26.2554C46.9855 26.2554 46.9019 26.3335 46.9058 26.61C46.9209 27.5993 46.9209 28.5885 46.9058 29.5777C46.9058 29.83 47.0081 29.937 47.2182 30.0417C48.3951 30.632 49.4704 31.406 50.4038 32.3346C50.7381 32.665 50.7717 33.0281 50.5038 33.2921C50.4499 33.35 50.3846 33.396 50.3119 33.4273C50.2392 33.4585 50.1608 33.4742 50.0817 33.4734C50.0027 33.4725 49.9246 33.4552 49.8526 33.4226C49.7806 33.3899 49.7161 33.3425 49.6635 33.2835C48.6206 32.2428 47.3982 31.3991 46.0553 30.793C45.7999 30.6758 45.7008 30.4556 45.7008 30.19C45.7008 28.8624 45.689 27.5347 45.7086 26.207C45.7187 25.5283 46.2349 25.0574 46.9324 25.0496C47.8039 25.0402 48.6755 25.0496 49.5471 25.0496L49.5448 25.0504Z" fill="#00F6BC"/>
<path d="M49.5104 57.4613C48.6774 57.4613 47.8443 57.4613 47.0113 57.4613C46.2045 57.4613 45.7078 56.9881 45.7008 56.1899C45.6891 54.9403 45.7008 53.6907 45.6914 52.4412C45.6914 52.0624 45.8265 51.8086 46.1866 51.6446C47.4454 51.0727 48.5911 50.279 49.569 49.3016C49.89 48.9822 50.2375 48.9595 50.4968 49.2165C50.7561 49.4734 50.7311 49.846 50.3953 50.174C49.4621 51.1015 48.3876 51.8752 47.212 52.4662C47.0003 52.5716 46.8996 52.6809 46.9058 52.9347C46.9209 53.924 46.9209 54.9132 46.9058 55.9025C46.9058 56.1782 46.9902 56.2563 47.2588 56.2547C48.8989 56.2446 50.539 56.2485 52.1744 56.2508C52.2571 56.2548 52.3397 56.2399 52.4159 56.2073C52.492 56.1747 52.5598 56.1252 52.614 56.0626C53.1154 55.5346 53.8636 55.5159 54.3486 56.0064C54.4629 56.1181 54.5535 56.2517 54.6148 56.3993C54.6762 56.5468 54.7071 56.7053 54.7057 56.8651C54.7044 57.0249 54.6707 57.1828 54.6068 57.3293C54.5429 57.4757 54.45 57.6078 54.3338 57.7175C53.8441 58.1947 53.1217 58.1861 52.632 57.6605C52.5686 57.589 52.4894 57.5333 52.4008 57.4977C52.3122 57.462 52.2165 57.4474 52.1212 57.4551C51.2505 57.4598 50.3789 57.4551 49.5081 57.4551L49.5104 57.4613Z" fill="#00F6BC"/>
<path d="M33.2818 26.2632C32.4758 26.2632 31.6698 26.2632 30.8607 26.2632C30.7654 26.2574 30.67 26.2735 30.5818 26.3103C30.4937 26.3472 30.4152 26.4037 30.3523 26.4756C30.2444 26.5907 30.1147 26.6833 29.9708 26.7479C29.8268 26.8125 29.6715 26.8478 29.5138 26.8519C29.3561 26.856 29.1991 26.8288 29.052 26.7718C28.9049 26.7147 28.7706 26.6291 28.6568 26.5197C28.5431 26.4104 28.4522 26.2795 28.3894 26.1348C28.3267 25.99 28.2932 25.8343 28.2911 25.6765C28.289 25.5188 28.3182 25.3622 28.3771 25.2158C28.436 25.0694 28.5234 24.9362 28.6341 24.8238C29.1113 24.331 29.8517 24.3154 30.3359 24.8238C30.4079 24.9041 30.4972 24.9669 30.597 25.0075C30.6969 25.0481 30.8047 25.0654 30.9123 25.0581C32.589 25.0535 34.2666 25.0581 35.9441 25.0581C36.822 25.0581 37.2913 25.522 37.296 26.4046C37.2999 27.2496 37.3124 28.0954 37.296 28.9396C37.2898 29.2622 37.3288 29.3879 37.692 29.2559C38.0986 29.119 38.5136 29.0086 38.9345 28.9256C39.2821 28.8475 39.5859 29.0326 39.6663 29.3403C39.7561 29.6816 39.5882 29.9838 39.2126 30.0775C38.444 30.2703 37.6877 30.5089 36.9477 30.7921C36.469 30.9733 36.1042 30.7054 36.0886 30.1619C36.0714 29.3559 36.0824 28.5499 36.0816 27.7408C36.0816 27.3503 36.0683 26.9598 36.0816 26.5693C36.0917 26.3288 36.0035 26.257 35.7692 26.257C34.9374 26.2679 34.1057 26.2616 33.27 26.2616L33.2818 26.2632Z" fill="#00F6BC"/>
<path d="M29.1261 35.845C28.5013 35.845 27.8765 35.8496 27.2517 35.845C27.1631 35.839 27.0743 35.8543 26.9928 35.8896C26.9113 35.9249 26.8394 35.9792 26.7831 36.048C26.6227 36.2293 26.4111 36.3576 26.1762 36.4159C25.9412 36.4742 25.6942 36.4598 25.4676 36.3746C25.2411 36.2894 25.0457 36.1374 24.9075 35.9387C24.7692 35.74 24.6946 35.5041 24.6934 35.262C24.6922 35.02 24.7645 34.7833 24.9008 34.5833C25.0371 34.3833 25.231 34.2294 25.4567 34.1419C25.6824 34.0545 25.9293 34.0377 26.1648 34.0937C26.4002 34.1497 26.6132 34.2759 26.7753 34.4556C26.8254 34.5211 26.8901 34.5739 26.9643 34.6099C27.0385 34.6458 27.1201 34.6639 27.2025 34.6625C28.3076 34.6547 29.4135 34.6532 30.5186 34.6625C30.738 34.6625 30.8364 34.5641 30.9434 34.3994C31.7115 33.2042 32.6785 32.1495 33.8026 31.2809C34.0314 31.1044 34.2657 30.9865 34.5555 31.1247C34.9858 31.3254 35.0241 31.8448 34.6063 32.1751C33.9176 32.7098 33.2875 33.3158 32.7264 33.9831C32.3565 34.4193 32.0259 34.8874 31.7385 35.3818C31.5534 35.7098 31.3074 35.8676 30.9184 35.8504C30.321 35.8278 29.722 35.8442 29.1222 35.8442L29.1261 35.845Z" fill="#00F6BC"/>
<path d="M29.0824 47.8551C28.4709 47.8551 27.8586 47.859 27.2471 47.8551C27.1588 47.8489 27.0703 47.8638 26.9889 47.8984C26.9074 47.933 26.8353 47.9864 26.7785 48.0542C26.6174 48.2348 26.4052 48.3621 26.1701 48.4194C25.9351 48.4766 25.6881 48.4611 25.462 48.3749C25.236 48.2887 25.0414 48.1359 24.9041 47.9366C24.7669 47.7374 24.6934 47.5011 24.6934 47.2592C24.6934 47.0172 24.7669 46.781 24.9041 46.5817C25.0414 46.3825 25.236 46.2296 25.462 46.1434C25.6881 46.0572 25.9351 46.0417 26.1701 46.099C26.4052 46.1563 26.6174 46.2836 26.7785 46.4641C26.9026 46.6 27.0182 46.6742 27.2064 46.6719C28.0655 46.6633 28.9246 46.6586 29.7837 46.6719C30.0734 46.6719 30.0789 46.5758 29.975 46.3525C29.6118 45.5593 29.3438 44.7259 29.1769 43.8697C29.0949 43.4597 29.2643 43.1582 29.6103 43.0887C29.9703 43.0153 30.2413 43.1981 30.3374 43.6151C30.5969 44.7563 31.0157 45.8552 31.5815 46.8796C31.8775 47.413 31.6073 47.8465 30.9973 47.8551C30.3601 47.8629 29.722 47.8551 29.0847 47.8551H29.0824Z" fill="#00F6BC"/>
<path d="M53.9183 47.8549C53.2935 47.8549 52.6688 47.8596 52.044 47.8549C51.3833 47.8487 51.1209 47.4207 51.4403 46.8396C51.9925 45.8345 52.4003 44.7566 52.6516 43.6376C52.7531 43.194 53.0218 43.0003 53.3927 43.0784C53.7481 43.1526 53.9043 43.4556 53.8145 43.9016C53.6488 44.745 53.383 45.5657 53.0225 46.3461C52.914 46.5804 52.9296 46.6655 53.2147 46.6585C54.0738 46.6475 54.9328 46.6538 55.7919 46.6585C55.8682 46.6622 55.9442 46.648 56.014 46.6169C56.0837 46.5859 56.1452 46.5388 56.1933 46.4796C56.6963 45.9329 57.4648 45.9025 57.9576 46.4015C58.0709 46.5143 58.1603 46.6486 58.2207 46.7966C58.281 46.9446 58.3111 47.1032 58.309 47.263C58.3068 47.4229 58.2726 47.5806 58.2084 47.727C58.1441 47.8733 58.0512 48.0053 57.9349 48.115C57.446 48.5836 56.6908 48.5516 56.1972 48.0135C56.1468 47.9574 56.084 47.9139 56.0137 47.8864C55.9435 47.8588 55.8678 47.8481 55.7927 47.8549C55.1679 47.8596 54.5431 47.8549 53.9183 47.8549Z" fill="#00F6BC"/>
<path d="M40.8983 56.339C40.8983 55.6236 40.8842 54.9075 40.9053 54.1921C40.9147 53.8969 40.8116 53.8016 40.5304 53.8016C40.047 53.8063 39.5729 53.711 39.0989 53.6282C38.6732 53.554 38.4397 53.2658 38.5022 52.9097C38.5647 52.5536 38.8396 52.374 39.2699 52.4474C40.7216 52.7018 42.2062 52.7052 43.659 52.4575C44.1276 52.3794 44.4033 52.5505 44.465 52.916C44.5283 53.294 44.3002 53.5517 43.8309 53.6384C43.3826 53.7204 42.9335 53.8063 42.4766 53.8C42.1642 53.7953 42.0916 53.9289 42.0947 54.2233C42.108 55.6549 42.0947 57.0864 42.1018 58.5187C42.1018 58.814 42.0401 59.0592 41.7464 59.1951C41.3294 59.388 40.9108 59.106 40.9029 58.6047C40.892 57.8502 40.9029 57.0958 40.9029 56.3398L40.8983 56.339Z" fill="#00F6BC"/>
<path d="M26.7974 41.8562C25.9524 41.8562 25.1074 41.8562 24.2624 41.8562C23.7891 41.8562 23.5079 41.6359 23.5001 41.2658C23.4931 40.8823 23.7813 40.6566 24.2811 40.6566C25.7119 40.6566 27.1419 40.6464 28.5718 40.6566C28.8436 40.6566 28.9358 40.5738 28.9467 40.3106C28.9842 39.3961 29.181 38.5089 29.4301 37.6318C29.4554 37.5309 29.4859 37.4313 29.5215 37.3335C29.6535 37.0024 29.9542 36.8415 30.2658 36.9274C30.3429 36.9454 30.4153 36.9795 30.4784 37.0273C30.5414 37.0752 30.5937 37.1358 30.6318 37.2052C30.6699 37.2746 30.6929 37.3512 30.6994 37.4301C30.7059 37.509 30.6958 37.5884 30.6696 37.6631C30.3057 38.8319 30.1131 40.0472 30.0979 41.2712C30.0885 41.6664 29.8378 41.8523 29.4122 41.8554C28.5398 41.8609 27.669 41.857 26.7974 41.8562Z" fill="#00F6BC"/>
<path d="M42.1054 26.1438C42.1054 26.8467 42.1304 27.5496 42.0953 28.2525C42.0766 28.6282 42.2163 28.725 42.5537 28.7211C43.0106 28.7133 43.4581 28.8086 43.9056 28.8906C44.3156 28.9687 44.5374 29.2397 44.4851 29.5849C44.4328 29.9301 44.1587 30.1316 43.7307 30.0683C43.0119 29.9558 42.2868 29.8879 41.5595 29.8652C41.105 29.8551 40.9027 29.6247 40.9012 29.1694C40.8975 27.4278 40.8975 25.6862 40.9012 23.9446C40.9012 23.533 41.1394 23.269 41.4908 23.2628C41.8423 23.2566 42.0984 23.5338 42.1015 23.9657C42.1054 24.6936 42.1015 25.4214 42.1015 26.1524L42.1054 26.1438Z" fill="#00F6BC"/>
<path d="M41.5007 46.0588C40.5518 46.0588 39.6029 46.0588 38.654 46.0588C38.1074 46.0588 37.9074 45.8549 37.9066 45.2989C37.9035 43.5953 37.9035 41.8925 37.9066 40.1905C37.9066 39.6688 38.1159 39.4501 38.6415 39.4485C40.5518 39.4423 42.4626 39.4423 44.374 39.4485C44.8949 39.4485 45.1034 39.6711 45.1042 40.1952C45.1042 41.8977 45.1042 43.6005 45.1042 45.3036C45.1042 45.8542 44.9004 46.0564 44.3505 46.0588C43.3954 46.0627 42.4465 46.0588 41.5007 46.0588ZM43.297 42.5186C43.297 41.6025 42.6527 40.8192 41.8358 40.6833C40.9337 40.5341 40.1262 40.9957 39.8161 41.8368C39.6665 42.2361 39.6659 42.676 39.8146 43.0757C39.9632 43.4754 40.2511 43.8081 40.6252 44.0126C40.7066 44.0478 40.7778 44.1029 40.8324 44.1727C40.8869 44.2426 40.9231 44.325 40.9376 44.4125C40.9947 44.703 41.218 44.8412 41.5117 44.8365C41.7874 44.8319 42.0146 44.6983 42.0584 44.4281C42.099 44.1805 42.245 44.0923 42.4285 43.9814C42.9955 43.6377 43.2611 43.1129 43.297 42.5186Z" fill="#00F6BC"/>
<path d="M41.49 38.2562C40.9964 38.2562 40.5036 38.2476 40.0101 38.2562C39.7851 38.2625 39.6727 38.207 39.6891 37.9555C39.7133 37.5651 39.6797 37.1746 39.7305 36.7903C39.8507 35.882 40.595 35.2588 41.508 35.2627C42.421 35.2666 43.1582 35.8953 43.2699 36.8075C43.3167 37.1917 43.2918 37.5846 43.3113 37.9727C43.3222 38.1992 43.2207 38.2609 43.009 38.2562C42.503 38.2492 41.9961 38.2562 41.49 38.2562Z" fill="#00F6BC"/>
<path d="M42.0966 42.4767C42.0937 42.5548 42.0754 42.6315 42.0428 42.7026C42.0102 42.7736 41.964 42.8375 41.9067 42.8907C41.8494 42.9438 41.7822 42.9852 41.7089 43.0124C41.6357 43.0396 41.5577 43.052 41.4796 43.0491C41.4014 43.0473 41.3242 43.0299 41.2527 42.9979C41.1812 42.966 41.1168 42.9201 41.0633 42.8629C41.0098 42.8057 40.9682 42.7385 40.941 42.665C40.9138 42.5916 40.9015 42.5135 40.9048 42.4353C40.9119 42.2777 40.9805 42.1292 41.0959 42.0216C41.2112 41.914 41.3641 41.8558 41.5218 41.8597C41.6001 41.8624 41.677 41.8805 41.7483 41.913C41.8196 41.9455 41.8837 41.9917 41.9371 42.049C41.9905 42.1063 42.0321 42.1736 42.0594 42.247C42.0868 42.3203 42.0994 42.3984 42.0966 42.4767Z" fill="#00F6BC"/>
<defs>
<linearGradient id="paint0_linear_579_920" x1="41.5" y1="0.262817" x2="41.5" y2="82.2628" gradientUnits="userSpaceOnUse">
<stop stop-color="#00FDBB"/>
<stop offset="1" stop-color="#008BD1"/>
</linearGradient>
</defs>
</svg>
