<svg width="83" height="83" viewBox="0 0 83 83" fill="none" xmlns="http://www.w3.org/2000/svg">
<path d="M72.5779 68.0053C67.1389 74.3262 59.9017 78.8383 51.8319 80.9397C43.7621 83.041 35.2435 82.6318 27.4123 79.7665C19.5811 76.9013 12.8098 71.7162 8.00167 64.9031C3.19354 58.0899 0.577199 49.9727 0.501681 41.6341C0.426164 33.2956 2.89506 25.1322 7.57901 18.2331C12.263 11.334 18.9392 6.02719 26.7172 3.02056C34.4952 0.0139341 43.0051 -0.549521 51.1116 1.40536C59.2181 3.36025 66.5358 7.74052 72.0885 13.9618L65.8686 19.5133C61.445 14.557 55.6153 11.0674 49.1572 9.51005C42.6991 7.95268 35.9196 8.40156 29.7232 10.7968C23.5268 13.1921 18.2081 17.4198 14.4766 22.916C10.7451 28.4123 8.77819 34.9156 8.83836 41.5586C8.89852 48.2016 10.9828 54.6683 14.8133 60.096C18.6437 65.5238 24.0381 69.6545 30.2769 71.9371C36.5157 74.2198 43.3022 74.5458 49.731 72.8717C56.1599 71.1976 61.9254 67.603 66.2585 62.5674L72.5779 68.0053Z" fill="url(#paint0_linear_579_921)"/>
<path d="M41.0489 55.0395C36.8151 55.0395 32.5813 55.0395 28.3475 55.0395C25.7501 55.0358 23.6351 54.0295 22.0494 52.0043C21.2995 51.0473 20.8402 49.9571 20.6336 48.7494C20.527 48.1832 20.4839 47.6072 20.5053 47.0317C20.5604 46.1436 20.7777 45.2726 21.1468 44.4605C21.7485 43.0969 22.6896 42.0149 23.9283 41.174C24.4306 40.8325 24.9906 40.6021 25.541 40.3533C25.6738 40.2934 25.745 40.2271 25.7694 40.0857C26.0317 38.5434 26.8047 37.2815 28.0017 36.2752C28.6567 35.7193 29.4338 35.3206 30.2719 35.1105C30.4881 35.0562 30.6934 34.9678 30.9211 34.9464C31.1136 34.9287 31.1681 34.7532 31.2085 34.6042C31.6665 32.9124 32.5729 31.473 33.8065 30.2345C34.8974 29.1335 36.2406 28.3059 37.7234 27.8211C38.9423 27.4189 40.206 27.1898 41.4992 27.2838C44.5963 27.5136 47.1654 28.7598 49.086 31.2029C49.3401 31.5253 49.574 31.8626 49.7865 32.2129C49.9001 32.4023 50.0303 32.461 50.2311 32.4238C51.0109 32.2864 51.8094 32.2864 52.5892 32.4238C53.5562 32.58 54.4818 32.9247 55.3117 33.4376C56.4286 34.1263 57.3451 35.0881 57.9719 36.2291C58.3706 36.9563 58.6464 37.7424 58.7885 38.5567C58.9709 39.4776 58.9617 40.4253 58.7616 41.3426C58.7141 41.5553 58.7667 41.7163 58.9431 41.869C59.9477 42.7396 60.6405 43.8229 61.0799 45.0577C61.1964 45.3732 61.2798 45.6995 61.3288 46.0317C61.3981 46.5368 61.5212 47.0367 61.4969 47.5569C61.3987 49.7418 60.5725 51.5971 58.9309 53.0863C57.9392 53.9891 56.7665 54.568 55.4637 54.8621C54.9754 54.9772 54.4756 55.0378 53.9735 55.0427C49.6657 55.0368 45.3575 55.0358 41.0489 55.0395ZM40.9886 52.5498C45.1262 52.5498 49.2637 52.5396 53.4007 52.5567C54.461 52.5611 55.4534 52.3673 56.3727 51.8459C57.544 51.1811 58.3189 50.19 58.7231 48.9369C58.998 48.0804 59.0203 47.1647 58.7872 46.2962C58.5197 45.2206 57.9003 44.2612 57.0244 43.5659C56.687 43.2907 56.3137 43.0685 55.9435 42.84C55.8191 42.7629 55.6228 42.7068 55.7203 42.4612C55.9351 41.9608 56.1124 41.4455 56.2508 40.9196C56.5863 39.5566 56.279 38.3174 55.5541 37.1622C54.8831 36.0934 53.8978 35.3864 52.6803 35.0392C51.9451 34.829 51.1895 34.7204 50.4049 34.9129C49.8873 35.0392 49.3831 35.2065 48.8769 35.363C48.5741 35.4565 48.4741 35.339 48.3811 35.1061C48.1046 34.4155 47.814 33.7286 47.3746 33.1188C46.1461 31.4143 44.5142 30.331 42.4076 29.915C41.3349 29.7035 40.2276 29.7316 39.1674 29.9971C37.9416 30.2917 36.812 30.8882 35.8849 31.7306C34.9086 32.6144 34.1767 33.6447 33.7571 34.887C33.5961 35.3649 33.5108 35.8586 33.4037 36.3497C33.1381 37.5662 33.532 37.3554 32.249 37.3345C31.476 37.3225 30.7646 37.4608 30.1058 37.8433C29.1923 38.3724 28.6092 39.145 28.3058 40.1519C28.1326 40.7258 28.1672 41.2952 28.1775 41.8709C28.182 42.1544 28.0633 42.2787 27.7823 42.3412C27.2961 42.4492 26.7996 42.5546 26.3429 42.7434C24.7109 43.4163 23.6486 44.5855 23.1996 46.295C22.9071 47.4035 22.9975 48.4843 23.4748 49.4912C24.4101 51.4671 26.0311 52.5213 28.2545 52.5397C32.4998 52.5687 36.7445 52.5498 40.9886 52.5498Z" fill="#00F6BC"/>
<path d="M37.7029 44.9034C37.2006 44.9034 36.6983 44.8977 36.1961 44.9034C35.9132 44.9078 35.8413 45.0334 36.0075 45.2563C36.8234 46.3497 37.8594 47.0965 39.2463 47.378C40.1181 47.5548 40.9392 47.4765 41.7616 47.2095C41.9303 47.1545 42.0252 47.2398 42.1247 47.3357C42.6148 47.8187 43.101 48.3054 43.5943 48.7845C43.7925 48.9771 43.8214 49.0585 43.5148 49.2075C42.0443 49.9397 40.3655 50.161 38.7511 49.8356C36.7625 49.4455 35.1588 48.4108 33.9913 46.76C33.6808 46.3212 33.3915 45.8686 33.2132 45.3585C33.0945 45.0195 32.8841 44.8807 32.4979 44.8945C31.664 44.9248 30.83 44.9046 29.9961 44.9021C29.8935 44.9021 29.7594 44.933 29.71 44.8156C29.6606 44.6982 29.7928 44.6345 29.8627 44.5631C31.3381 43.1042 32.8244 41.651 34.2973 40.1877C34.507 39.9787 34.6418 39.9516 34.8663 40.1763C36.3346 41.6415 37.8171 43.0941 39.2925 44.553C39.3631 44.6231 39.4984 44.6793 39.4542 44.8024C39.4035 44.9413 39.2553 44.8983 39.1443 44.8996C38.6632 44.9034 38.1821 44.8996 37.7016 44.8996L37.7029 44.9034Z" fill="#00F6BC"/>
<path d="M44.2934 39.9351C44.7848 39.9351 45.2762 39.9351 45.7688 39.9351C45.8721 39.9351 45.9946 39.9597 46.0492 39.8366C46.0928 39.7368 46.0338 39.6472 45.978 39.5733C44.8605 38.0734 43.3729 37.2862 41.4651 37.3638C41.0592 37.3766 40.6585 37.4584 40.2809 37.6056C40.2197 37.6374 40.1493 37.6477 40.0813 37.6348C40.0134 37.622 39.9518 37.5867 39.9069 37.5349C39.389 37.0194 38.8688 36.5065 38.3462 35.9965C38.148 35.802 38.2449 35.744 38.4585 35.6385C39.9717 34.8753 41.5799 34.6916 43.2164 35.0016C45.2171 35.3803 46.8286 36.4257 48.0108 38.0816C48.3526 38.5745 48.6401 39.1019 48.8685 39.6548C48.9666 39.8833 49.1167 39.9376 49.3406 39.9369C50.2162 39.9319 51.0925 39.9338 51.9707 39.9369C52.0823 39.9369 52.2318 39.8965 52.2844 40.0297C52.3306 40.1478 52.1952 40.2084 52.1247 40.2778C50.6492 41.7367 49.1623 43.1893 47.6907 44.6539C47.4752 44.8685 47.3405 44.8749 47.1211 44.6539C45.6598 43.1969 44.185 41.75 42.7186 40.298C42.6416 40.2223 42.487 40.1611 42.5422 40.026C42.6031 39.8789 42.7654 39.9351 42.886 39.9338C43.353 39.9313 43.8232 39.9344 44.2934 39.9351Z" fill="#00F6BC"/>
<defs>
<linearGradient id="paint0_linear_579_921" x1="41.5" y1="0.262817" x2="41.5" y2="82.2628" gradientUnits="userSpaceOnUse">
<stop stop-color="#00FDBB"/>
<stop offset="1" stop-color="#008BD1"/>
</linearGradient>
</defs>
</svg>
