<svg width="93" height="72" viewBox="0 0 93 72" fill="none" xmlns="http://www.w3.org/2000/svg">
<path d="M40.9474 24.9989C40.2939 40.9105 36.8845 55.9261 30.0683 70.1166C29.797 70.7301 29.3005 71.216 28.6812 71.4739C28.0619 71.7319 27.3672 71.7422 26.7406 71.5027C25.9591 71.2303 26.3921 70.6585 26.4846 70.25C27.3207 66.5819 28.2275 62.9301 28.8402 59.213C29.3848 55.9751 29.6272 52.7291 29.1125 49.4667C28.3119 44.4942 25.4662 41.9589 20.4201 41.8418C14.6225 41.7084 9.69352 39.5816 5.82933 35.3062C0.655286 29.5875 -1.00312 22.8449 1.35243 15.4651C3.67802 8.17242 8.74858 3.4831 16.27 1.82468C28.9001 -0.958405 40.4464 8.08799 40.9502 21.0095C40.9937 22.4228 40.9474 23.8198 40.9474 24.9989Z" fill="#00F3B6"/>
<path d="M92.5373 23.9518C91.9164 39.7299 88.5015 54.8381 81.6446 69.1185C81.3743 69.7322 80.8783 70.2185 80.2593 70.4766C79.6403 70.7346 78.9458 70.7446 78.3196 70.5046C77.6143 70.2676 77.9383 69.7938 78.0255 69.3935C78.7335 66.1257 79.4987 62.8579 80.1659 59.5574C80.8113 56.393 81.1544 53.1933 80.8603 49.9554C80.6887 48.0492 80.3484 46.1702 79.2999 44.5091C77.6007 41.8268 75.0055 40.9063 71.98 40.8328C65.3872 40.6776 60.0144 37.9816 56.093 32.7177C51.4636 26.5143 50.5159 19.6165 53.6258 12.5362C56.8936 5.12375 62.7702 0.916444 70.9262 0.371808C80.313 -0.254523 88.6513 5.42058 91.5134 14.1211C92.5727 17.3372 92.7252 20.6214 92.5373 23.9518Z" fill="#00F3B6"/>
</svg>
