<svg width="89" height="89" viewBox="0 0 89 89" fill="none" xmlns="http://www.w3.org/2000/svg">
<path d="M78.2309 73.5254C72.3275 80.3858 64.4726 85.2831 55.7139 87.5639C46.9553 89.8447 37.7094 89.4005 29.2097 86.2906C20.71 83.1808 13.3606 77.5531 8.14206 70.1583C2.92348 62.7636 0.0837891 53.9534 0.00182482 44.903C-0.0801395 35.8526 2.59952 26.9924 7.68331 19.5044C12.7671 12.0163 20.0133 6.25645 28.4553 2.99316C36.8973 -0.270129 46.1336 -0.881684 54.9321 1.24008C63.7307 3.36184 71.673 8.11604 77.6997 14.8684L70.9488 20.8938C66.1476 15.5144 59.8203 11.727 52.8108 10.0366C45.8014 8.34631 38.4432 8.83351 31.7179 11.4332C24.9925 14.033 19.2197 18.6216 15.1697 24.587C11.1196 30.5524 8.98487 37.611 9.05017 44.821C9.11547 52.0311 11.3777 59.0498 15.5352 64.9409C19.6926 70.832 25.5475 75.3153 32.3188 77.7928C39.0902 80.2703 46.456 80.6242 53.4337 78.8072C60.4113 76.9902 66.669 73.0888 71.372 67.6233L78.2309 73.5254Z" fill="url(#paint0_linear_579_1224)"/>
<path d="M62.5283 44.8032C62.5283 44.8032 64.2733 34.7802 64.4617 30.9902C64.6502 27.2002 61.9629 27.8004 59.8411 28.5822C57.7192 29.3639 29.4161 41.3412 24.2441 43.9377C22.2967 44.7683 22.7155 46.1154 24.9421 46.8483C27.1686 47.5812 29.2416 48.328 31.0005 48.9422C32.7594 49.5565 34.8813 49.1726 37.8407 47.1345C40.8002 45.0964 50.3206 38.5842 52.6309 37.1534C54.9412 35.7225 55.6392 37.1045 54.2503 38.6052C52.8613 40.1058 43.8992 48.2931 42.0496 50.0939C40.1999 51.8947 42.0495 53.3326 43.2501 54.212C44.4506 55.0915 52.7216 60.9685 54.8993 62.1899C57.077 63.4114 59.6735 62.8042 60.1342 60.096C60.5948 57.3878 62.5283 44.8032 62.5283 44.8032Z" fill="#00F6BC"/>
<defs>
<linearGradient id="paint0_linear_579_1224" x1="44.5" y1="0" x2="44.5" y2="89" gradientUnits="userSpaceOnUse">
<stop stop-color="#00FDBB"/>
<stop offset="1" stop-color="#008BD1"/>
</linearGradient>
</defs>
</svg>
