<svg width="31" height="31" viewBox="0 0 31 31" fill="none" xmlns="http://www.w3.org/2000/svg">
<path d="M15.4458 30.4463C12.435 30.4463 9.49172 29.5535 6.98828 27.8808C4.48484 26.208 2.53366 23.8305 1.38145 21.0488C0.229245 18.2672 -0.072215 15.2063 0.515174 12.2533C1.10256 9.30027 2.55244 6.58776 4.68144 4.45876C6.81044 2.32976 9.52293 0.879908 12.4759 0.292518C15.4289 -0.294871 18.4898 0.00658912 21.2715 1.15879C24.0532 2.311 26.4307 4.26218 28.1034 6.76562C29.7762 9.26906 30.669 12.2123 30.669 15.2232C30.6654 19.2595 29.0604 23.1295 26.2063 25.9836C23.3521 28.8377 19.4822 30.4427 15.4458 30.4463ZM15.4458 1.06619C12.646 1.06687 9.90922 1.89775 7.58157 3.45374C5.25392 5.00974 3.43992 7.221 2.36894 9.8079C1.29795 12.3948 1.01807 15.2412 1.5647 17.9872C2.11134 20.7331 3.45995 23.2553 5.43997 25.2349C7.42 27.2144 9.94253 28.5624 12.6886 29.1084C15.4347 29.6543 18.281 29.3738 20.8677 28.3022C23.4543 27.2306 25.6651 25.416 27.2206 23.088C28.776 20.76 29.6062 18.023 29.6062 15.2232C29.6017 11.4693 28.1082 7.87053 25.4535 5.21647C22.7988 2.5624 19.1997 1.0698 15.4458 1.06619Z" fill="#00F3B6"/>
<path d="M21.1073 8.3185V4.91211H17.5953C14.4853 4.91211 12.7821 6.61529 12.7821 10.0489V12.9546H9.28711V16.8345H12.9217V25.5276H16.9651V16.7016H20.0513L20.4805 12.8047H17.1695V10.2056C17.1695 8.0562 18.5116 8.3185 21.1073 8.3185Z" fill="#00F3B6"/>
</svg>
