<svg width="32" height="31" viewBox="0 0 32 31" fill="none" xmlns="http://www.w3.org/2000/svg">
<path d="M16.0005 30.4464C12.9897 30.4464 10.0464 29.5535 7.54299 27.8808C5.03955 26.208 3.08834 23.8305 1.93614 21.0488C0.783933 18.2672 0.482473 15.2063 1.06986 12.2533C1.65725 9.30029 3.1071 6.58778 5.2361 4.45878C7.3651 2.32978 10.0776 0.879908 13.0306 0.292518C15.9836 -0.294871 19.0445 0.00658912 21.8262 1.15879C24.6079 2.311 26.9854 4.26221 28.6581 6.76564C30.3309 9.26908 31.2237 12.2123 31.2237 15.2232C31.2201 19.2595 29.6151 23.1295 26.7609 25.9836C23.9068 28.8377 20.0369 30.4427 16.0005 30.4464ZM16.0005 1.06621C13.2007 1.06689 10.4639 1.89775 8.13626 3.45374C5.8086 5.00974 3.99459 7.221 2.92361 9.8079C1.85262 12.3948 1.57276 15.2412 2.11939 17.9872C2.66602 20.7331 4.01462 23.2553 5.99464 25.2349C7.97467 27.2144 10.4972 28.5624 13.2433 29.1084C15.9894 29.6543 18.8357 29.3738 21.4224 28.3022C24.009 27.2306 26.2198 25.416 27.7752 23.088C29.3307 20.76 30.1609 18.023 30.1609 15.2232C30.1564 11.4693 28.663 7.87053 26.0082 5.21647C23.3535 2.5624 19.7544 1.06982 16.0005 1.06621Z" fill="#00F3B6"/>
<path d="M20.4665 6.66992H11.5349C10.4508 6.66992 9.4111 7.10058 8.64451 7.86717C7.87793 8.63376 7.44727 9.67348 7.44727 10.7576V19.6926C7.44727 20.7767 7.87793 21.8164 8.64451 22.583C9.4111 23.3496 10.4508 23.7802 11.5349 23.7802H20.4665C21.5506 23.7802 22.5903 23.3496 23.3569 22.583C24.1235 21.8164 24.5542 20.7767 24.5542 19.6926V10.7576C24.5542 9.67348 24.1235 8.63376 23.3569 7.86717C22.5903 7.10058 21.5506 6.66992 20.4665 6.66992ZM23.1269 18.7967C23.1269 19.2637 23.0349 19.7261 22.8562 20.1576C22.6775 20.5891 22.4155 20.9811 22.0853 21.3113C21.755 21.6416 21.363 21.9035 20.9315 22.0823C20.5001 22.261 20.0376 22.353 19.5706 22.353H12.4172C11.4779 22.3475 10.5789 21.9704 9.91692 21.3039C9.25495 20.6375 8.88384 19.736 8.88475 18.7967V11.6432C8.88431 11.1759 8.97596 10.7131 9.15448 10.2813C9.33299 9.84941 9.59488 9.45697 9.92516 9.12638C10.2554 8.79578 10.6476 8.53353 11.0793 8.35459C11.511 8.17566 11.9737 8.08356 12.441 8.08356H19.5945C20.538 8.08447 21.4425 8.4599 22.1093 9.12737C22.7762 9.79485 23.1507 10.6998 23.1507 11.6432L23.1269 18.7967Z" fill="#00F3B6"/>
<path d="M15.9261 10.6104C15.0055 10.6097 14.1054 10.8821 13.3397 11.3931C12.5739 11.9042 11.977 12.6309 11.6244 13.4813C11.2718 14.3316 11.1793 15.2675 11.3588 16.1704C11.5382 17.0734 11.9814 17.9028 12.6324 18.5538C13.2834 19.2047 14.1128 19.648 15.0157 19.8274C15.9187 20.0068 16.8545 19.9144 17.7049 19.5618C18.5553 19.2092 19.282 18.6122 19.793 17.8465C20.3041 17.0808 20.5765 16.1807 20.5758 15.2601C20.5749 14.0272 20.0847 12.845 19.2129 11.9732C18.3411 11.1014 17.159 10.6113 15.9261 10.6104ZM15.9261 18.1794C15.3485 18.18 14.7838 18.0094 14.3033 17.689C13.8228 17.3687 13.4481 16.913 13.2266 16.3796C13.0051 15.8463 12.9468 15.2592 13.0591 14.6927C13.1713 14.1262 13.4491 13.6057 13.8572 13.1971C14.2654 12.7885 14.7855 12.5101 15.3519 12.3972C15.9183 12.2842 16.5054 12.3419 17.039 12.5627C17.5727 12.7836 18.0288 13.1577 18.3497 13.6379C18.6706 14.118 18.8419 14.6826 18.8419 15.2601C18.8419 16.0337 18.5349 16.7758 17.9881 17.3231C17.4414 17.8705 16.6997 18.1785 15.9261 18.1794Z" fill="#00F3B6"/>
<path d="M21.7372 10.7092C21.7818 10.0825 21.3098 9.53824 20.6831 9.49364C20.0563 9.44904 19.5121 9.92097 19.4675 10.5477C19.4229 11.1745 19.8948 11.7188 20.5216 11.7634C21.1483 11.808 21.6926 11.336 21.7372 10.7092Z" fill="#00F3B6"/>
</svg>
