<svg width="173" height="51" viewBox="0 0 173 51" fill="none" xmlns="http://www.w3.org/2000/svg">
<path d="M19.5312 20.4219C19.5312 22.5117 20.6328 24.3516 22.2852 25.3867L22.6563 25.1562V18.8594C22.6563 18.3281 22.8125 17.8086 23.1055 17.3555L24.957 14.582C21.9258 14.8008 19.5312 17.3359 19.5312 20.4219Z" fill="white"/>
<path d="M46.7305 29.2305L42.5938 21.7109C42.6016 21.5 42.6055 21.2852 42.6055 21.0625C42.6055 13.2539 37.0664 6.39453 29.4297 4.74609L27.9805 4.43359C27.6367 4.35938 27.2734 4.44531 27 4.66797C26.7227 4.89062 26.5625 5.22266 26.5625 5.57812V7.53125H24.6094V6.35938C24.6094 4.85156 23.3828 3.625 21.875 3.625H17.7617C17.2812 2.26172 15.9805 1.28125 14.4531 1.28125C12.5156 1.28125 10.9375 2.85938 10.9375 4.79688C10.9375 6.73438 12.5156 8.3125 14.4531 8.3125C15.9805 8.3125 17.2812 7.33203 17.7617 5.96875H21.875C22.0898 5.96875 22.2656 6.14453 22.2656 6.35938V7.53125C21.6172 7.53125 21.0938 8.05469 21.0938 8.70312V11.0469C20.4023 11.332 19.7461 11.6992 19.1328 12.1328L17.1445 10.9844C16.582 10.6602 15.8672 10.8516 15.543 11.4141L15.1172 12.1484L14.3125 11.0195C13.8008 10.3047 12.9688 9.875 12.0859 9.875H9.94922C9.46875 8.51172 8.16797 7.53125 6.64062 7.53125C4.70312 7.53125 3.125 9.10938 3.125 11.0469C3.125 12.9844 4.70312 14.5625 6.64062 14.5625C8.16797 14.5625 9.46875 13.582 9.94922 12.2188H12.0859C12.2109 12.2188 12.332 12.2812 12.4023 12.3828L13.8281 14.3789L12.8086 16.1484C12.6523 16.418 12.6094 16.7383 12.6914 17.0391C12.7695 17.3398 12.9688 17.5938 13.2383 17.75L14.9805 18.7578C14.9727 18.7891 14.9727 18.8242 14.9688 18.8594H9.94922C9.46875 17.4961 8.16797 16.5156 6.64062 16.5156C4.70312 16.5156 3.125 18.0938 3.125 20.0312C3.125 21.9688 4.70312 23.5469 6.64062 23.5469C8.16797 23.5469 9.46875 22.5664 9.94922 21.2031H14.8789C14.8828 21.2539 14.8828 21.3086 14.8867 21.3594L13.2383 22.3125C12.6758 22.6367 12.4844 23.3516 12.8086 23.9141L13.8281 25.6836L12.4023 27.6797C12.332 27.7812 12.2109 27.8438 12.0859 27.8438H9.94922C9.46875 26.4805 8.16797 25.5 6.64062 25.5C4.70312 25.5 3.125 27.0781 3.125 29.0156C3.125 30.9531 4.70312 32.5312 6.64062 32.5312C8.16797 32.5312 9.46875 31.5508 9.94922 30.1875H12.0859C12.9688 30.1875 13.8008 29.7578 14.3125 29.043L15.1172 27.9141L15.543 28.6484C15.8672 29.2109 16.582 29.4023 17.1445 29.0781L18.5508 28.2656C18.8555 28.5156 19.1797 28.75 19.5156 28.9648L15.3945 31.5391C15.1094 31.7148 14.918 32.0039 14.8594 32.332L14.0586 37.0195V37.0352L12.125 48.3516C12.0664 48.6914 12.1641 49.0391 12.3867 49.3008C12.6094 49.5664 12.9375 49.7188 13.2812 49.7188H32.8125C33.1758 49.7188 33.5195 49.5508 33.7383 49.2617C33.9609 48.9766 34.0391 48.6016 33.9453 48.25L32.0859 41.125H41.0156C41.6641 41.125 42.1875 40.6016 42.1875 39.9531V33.2031L46.293 30.8086C46.8438 30.4883 47.0352 29.7891 46.7305 29.2305ZM14.4531 5.96875C13.8086 5.96875 13.2812 5.44141 13.2812 4.79688C13.2812 4.15234 13.8086 3.625 14.4531 3.625C15.0977 3.625 15.625 4.15234 15.625 4.79688C15.625 5.44141 15.0977 5.96875 14.4531 5.96875ZM6.64062 12.2188C5.99609 12.2188 5.46875 11.6914 5.46875 11.0469C5.46875 10.4023 5.99609 9.875 6.64062 9.875C7.28516 9.875 7.8125 10.4023 7.8125 11.0469C7.8125 11.6914 7.28516 12.2188 6.64062 12.2188ZM6.64062 21.2031C5.99609 21.2031 5.46875 20.6758 5.46875 20.0312C5.46875 19.3867 5.99609 18.8594 6.64062 18.8594C7.28516 18.8594 7.8125 19.3867 7.8125 20.0312C7.8125 20.6758 7.28516 21.2031 6.64062 21.2031ZM6.64062 30.1875C5.99609 30.1875 5.46875 29.6602 5.46875 29.0156C5.46875 28.3711 5.99609 27.8438 6.64062 27.8438C7.28516 27.8438 7.8125 28.3711 7.8125 29.0156C7.8125 29.6602 7.28516 30.1875 6.64062 30.1875ZM18.1133 25.8125L16.9844 26.4609L15.4219 23.7578L16.7383 22.9961C17.1641 22.75 17.3906 22.2656 17.3086 21.7773C17.2266 21.3242 17.1875 20.8672 17.1875 20.4219C17.1875 19.7578 17.2695 19.0977 17.4375 18.4609C17.5664 17.9492 17.3438 17.4141 16.8867 17.1523L15.4219 16.3047L16.9844 13.6016L18.6406 14.5547C19.0664 14.8008 19.6016 14.7539 19.9805 14.4375C20.7617 13.7812 21.6523 13.2891 22.6211 12.9805C23.1094 12.8242 23.4375 12.3711 23.4375 11.8633V9.875H26.5625V14.9883L24.4141 18.2109C24.2891 18.4023 24.2188 18.6289 24.2188 18.8594V26.0234L21.7891 27.543C20.9531 27.1641 20.1797 26.6367 19.5234 25.9922C19.1484 25.6211 18.5703 25.5469 18.1133 25.8125ZM20.7031 47.375V46.1758L22.1641 45.5117C22.582 45.3203 22.8516 44.9062 22.8516 44.4453V42.2969C22.8516 41.6484 22.3281 41.125 21.6797 41.125C21.0312 41.125 20.5078 41.6484 20.5078 42.2969V43.6914L19.0469 44.3555C18.6289 44.5469 18.3594 44.9609 18.3594 45.4219V47.375H14.6719L16.2031 38.3906H23.3867V36.5C23.3867 35.8672 23.8633 35.3008 24.4961 35.2656C25.1758 35.2344 25.7305 35.7695 25.7305 36.4375C25.7305 38.6172 27.2188 40.5781 29.3555 41.0117C29.4492 41.0312 29.5508 41.043 29.6484 41.0586L31.2969 47.375H20.7031ZM34.7656 21.9844C34.7656 22.6328 34.2422 23.1562 33.5938 23.1562C32.9453 23.1562 32.4219 22.6328 32.4219 21.9844V20.4219C32.4219 19.7734 32.9453 19.25 33.5938 19.25C34.2422 19.25 34.7656 19.7734 34.7656 20.4219V21.9844Z" fill="white"/>
<path d="M61.728 35.5V17.62H69.264C70.448 17.62 71.456 17.828 72.288 18.244C73.136 18.644 73.784 19.22 74.232 19.972C74.696 20.708 74.928 21.604 74.928 22.66C74.928 23.476 74.704 24.244 74.256 24.964C73.824 25.668 73.128 26.252 72.168 26.716V25.204C73.048 25.54 73.744 25.956 74.256 26.452C74.768 26.948 75.128 27.5 75.336 28.108C75.544 28.716 75.648 29.356 75.648 30.028C75.648 31.74 75.08 33.084 73.944 34.06C72.824 35.02 71.264 35.5 69.264 35.5H61.728ZM64.992 32.62H69.6C70.448 32.62 71.12 32.388 71.616 31.924C72.128 31.444 72.384 30.812 72.384 30.028C72.384 29.244 72.128 28.612 71.616 28.132C71.12 27.652 70.448 27.412 69.6 27.412H64.992V32.62ZM64.992 24.556H69.432C70.104 24.556 70.64 24.364 71.04 23.98C71.44 23.58 71.64 23.068 71.64 22.444C71.64 21.82 71.44 21.324 71.04 20.956C70.64 20.588 70.104 20.404 69.432 20.404H64.992V24.556ZM84.4418 35.788C83.1618 35.788 81.9938 35.492 80.9378 34.9C79.8978 34.308 79.0658 33.5 78.4418 32.476C77.8338 31.452 77.5298 30.284 77.5298 28.972C77.5298 27.66 77.8338 26.492 78.4418 25.468C79.0658 24.444 79.8978 23.636 80.9378 23.044C81.9778 22.452 83.1458 22.156 84.4418 22.156C85.7218 22.156 86.8818 22.452 87.9218 23.044C88.9618 23.636 89.7858 24.444 90.3938 25.468C91.0178 26.476 91.3298 27.644 91.3298 28.972C91.3298 30.284 91.0178 31.452 90.3938 32.476C89.7698 33.5 88.9378 34.308 87.8978 34.9C86.8578 35.492 85.7058 35.788 84.4418 35.788ZM84.4418 32.908C85.1458 32.908 85.7618 32.74 86.2898 32.404C86.8338 32.068 87.2578 31.604 87.5618 31.012C87.8818 30.404 88.0418 29.724 88.0418 28.972C88.0418 28.204 87.8818 27.532 87.5618 26.956C87.2578 26.364 86.8338 25.9 86.2898 25.564C85.7618 25.212 85.1458 25.036 84.4418 25.036C83.7218 25.036 83.0898 25.212 82.5458 25.564C82.0018 25.9 81.5698 26.364 81.2498 26.956C80.9458 27.532 80.7938 28.204 80.7938 28.972C80.7938 29.724 80.9458 30.404 81.2498 31.012C81.5698 31.604 82.0018 32.068 82.5458 32.404C83.0898 32.74 83.7218 32.908 84.4418 32.908ZM99.4316 35.644C97.9596 35.644 96.8156 35.244 95.9996 34.444C95.1996 33.628 94.7996 32.484 94.7996 31.012V25.252H92.5436V22.444H92.7836C93.4236 22.444 93.9196 22.276 94.2716 21.94C94.6236 21.604 94.7996 21.116 94.7996 20.476V19.468H97.9436V22.444H100.944V25.252H97.9436V30.844C97.9436 31.276 98.0156 31.644 98.1596 31.948C98.3196 32.252 98.5596 32.484 98.8796 32.644C99.2156 32.804 99.6396 32.884 100.152 32.884C100.264 32.884 100.392 32.876 100.536 32.86C100.696 32.844 100.848 32.828 100.992 32.812V35.5C100.768 35.532 100.512 35.564 100.224 35.596C99.9356 35.628 99.6716 35.644 99.4316 35.644Z" fill="#00F3B6"/>
<path d="M103.394 35.5V22.444H106.346V25.468L106.01 24.964C106.25 24.02 106.73 23.316 107.45 22.852C108.17 22.388 109.018 22.156 109.994 22.156C111.066 22.156 112.01 22.436 112.826 22.996C113.642 23.556 114.17 24.292 114.41 25.204L113.522 25.276C113.922 24.236 114.522 23.46 115.322 22.948C116.122 22.42 117.042 22.156 118.082 22.156C119.01 22.156 119.834 22.364 120.554 22.78C121.29 23.196 121.866 23.78 122.282 24.532C122.698 25.268 122.906 26.124 122.906 27.1V35.5H119.762V27.844C119.762 27.268 119.658 26.772 119.45 26.356C119.242 25.94 118.954 25.62 118.586 25.396C118.218 25.156 117.77 25.036 117.242 25.036C116.746 25.036 116.306 25.156 115.922 25.396C115.538 25.62 115.242 25.94 115.034 26.356C114.826 26.772 114.722 27.268 114.722 27.844V35.5H111.578V27.844C111.578 27.268 111.474 26.772 111.266 26.356C111.058 25.94 110.762 25.62 110.378 25.396C110.01 25.156 109.57 25.036 109.058 25.036C108.562 25.036 108.122 25.156 107.738 25.396C107.354 25.62 107.058 25.94 106.85 26.356C106.642 26.772 106.538 27.268 106.538 27.844V35.5H103.394ZM125.566 35.5V22.444H128.71V35.5H125.566ZM125.566 20.98V17.62H128.71V20.98H125.566ZM131.612 35.5V22.444H134.564V25.012L134.324 24.556C134.628 23.772 135.124 23.18 135.812 22.78C136.516 22.364 137.332 22.156 138.26 22.156C139.22 22.156 140.068 22.364 140.804 22.78C141.556 23.196 142.14 23.78 142.556 24.532C142.972 25.268 143.18 26.124 143.18 27.1V35.5H140.036V27.844C140.036 27.268 139.924 26.772 139.7 26.356C139.476 25.94 139.164 25.62 138.764 25.396C138.38 25.156 137.924 25.036 137.396 25.036C136.884 25.036 136.428 25.156 136.028 25.396C135.628 25.62 135.316 25.94 135.092 26.356C134.868 26.772 134.756 27.268 134.756 27.844V35.5H131.612ZM151.911 35.788C150.647 35.788 149.519 35.492 148.527 34.9C147.535 34.292 146.751 33.468 146.175 32.428C145.599 31.388 145.311 30.236 145.311 28.972C145.311 27.692 145.599 26.54 146.175 25.516C146.751 24.492 147.535 23.676 148.527 23.068C149.535 22.46 150.655 22.156 151.887 22.156C152.879 22.156 153.759 22.356 154.527 22.756C155.311 23.14 155.927 23.684 156.375 24.388L155.895 25.036V17.332H159.039V35.5H156.063V32.98L156.399 33.604C155.951 34.308 155.327 34.852 154.527 35.236C153.727 35.604 152.855 35.788 151.911 35.788ZM152.247 32.908C152.967 32.908 153.599 32.74 154.143 32.404C154.687 32.068 155.111 31.604 155.415 31.012C155.735 30.42 155.895 29.74 155.895 28.972C155.895 28.22 155.735 27.548 155.415 26.956C155.111 26.348 154.687 25.876 154.143 25.54C153.599 25.204 152.967 25.036 152.247 25.036C151.543 25.036 150.911 25.212 150.351 25.564C149.791 25.9 149.351 26.364 149.031 26.956C148.727 27.532 148.575 28.204 148.575 28.972C148.575 29.74 148.727 30.42 149.031 31.012C149.351 31.604 149.791 32.068 150.351 32.404C150.911 32.74 151.543 32.908 152.247 32.908ZM160.836 35.5V32.956L168.42 24.172L168.9 25.252H161.172V22.444H171.684V25.012L164.244 33.796L163.764 32.716H171.732V35.5H160.836Z" fill="white"/>
</svg>
