<svg width="20" height="19" viewBox="0 0 20 19" fill="none" xmlns="http://www.w3.org/2000/svg">
<path d="M11.2056 14.0993C11.2056 15.1458 11.2101 16.1918 11.2056 17.2397C11.2016 17.878 10.8251 18.3075 10.1865 18.4278C9.57852 18.5423 8.90565 18.0809 8.82764 17.49C8.80939 17.3457 8.80098 17.2005 8.80248 17.0552C8.80248 15.0023 8.79745 12.9484 8.80701 10.897C8.80701 10.6675 8.75064 10.6018 8.50505 10.6028C6.32488 10.6129 4.1447 10.6081 1.96252 10.6096C1.58658 10.6096 1.24484 10.5197 0.983143 10.2501C0.630852 9.88774 0.530198 9.45919 0.731507 9.00068C0.932815 8.54218 1.30373 8.29288 1.82763 8.29192C4.00781 8.28805 6.18797 8.29191 8.36764 8.28853C8.8538 8.28853 8.79694 8.35859 8.79744 7.88366C8.79945 5.839 8.79945 3.79369 8.79744 1.74774C8.79744 1.41679 8.85431 1.10903 9.08783 0.849099C9.24457 0.674347 9.45193 0.548319 9.68351 0.48706C9.91509 0.425801 10.1604 0.43208 10.3883 0.505098C10.6125 0.575376 10.8095 0.708645 10.9539 0.887644C11.0982 1.06664 11.1833 1.28313 11.1981 1.50907C11.2051 1.6057 11.2051 1.70233 11.2051 1.79896C11.2051 3.83524 11.2051 5.87185 11.2051 7.90878C11.2051 8.34844 11.1548 8.28708 11.6117 8.28757C13.7839 8.2895 15.9556 8.2895 18.1271 8.28757C18.7381 8.28757 19.2136 8.64123 19.3405 9.1751C19.5171 9.91721 18.9515 10.5926 18.1286 10.6028C17.3058 10.6129 16.4678 10.6028 15.6384 10.6028C14.2549 10.6028 12.8704 10.6086 11.4879 10.5975C11.2504 10.5975 11.197 10.6661 11.1996 10.8816C11.2116 11.958 11.2056 13.0286 11.2056 14.0993Z" fill="#00F3B6"/>
</svg>
