<svg width="31" height="31" viewBox="0 0 31 31" fill="none" xmlns="http://www.w3.org/2000/svg">
<path d="M15.5533 30.4464C12.5424 30.4464 9.59915 29.5535 7.09572 27.8808C4.59228 26.208 2.64109 23.8305 1.48889 21.0488C0.336683 18.2672 0.0352015 15.2063 0.622591 12.2533C1.20998 9.30029 2.65985 6.58778 4.78885 4.45878C6.91785 2.32978 9.63036 0.879908 12.5834 0.292518C15.5364 -0.294871 18.5972 0.00658912 21.3789 1.15879C24.1606 2.311 26.5381 4.26221 28.2109 6.76564C29.8836 9.26908 30.7764 12.2123 30.7764 15.2232C30.7728 19.2595 29.1678 23.1295 26.3137 25.9836C23.4596 28.8377 19.5896 30.4427 15.5533 30.4464ZM15.5533 1.06621C12.7533 1.06621 10.0162 1.89649 7.68807 3.45208C5.35997 5.00767 3.54543 7.21868 2.47392 9.80553C1.40242 12.3924 1.12206 15.2389 1.66831 17.9851C2.21456 20.7313 3.56289 23.2538 5.54278 25.2337C7.52266 27.2136 10.0452 28.5619 12.7914 29.1081C15.5375 29.6544 18.3841 29.374 20.9709 28.3025C23.5578 27.231 25.7688 25.4165 27.3244 23.0884C28.8799 20.7603 29.7102 18.0232 29.7102 15.2232C29.7057 11.4699 28.2127 7.87164 25.5588 5.21767C22.9048 2.5637 19.3065 1.07072 15.5533 1.06621Z" fill="#00F3B6"/>
<path d="M17.1984 17.3695C17.1984 17.3695 17.6616 16.259 18.3089 16.4804C18.9561 16.7018 20.5128 17.0902 19.9201 18.1462C19.3274 19.2021 18.4179 19.352 17.0485 19.1102C15.6791 18.8683 14.4562 17.6795 13.2538 16.4498C12.0513 15.2201 11.4756 14.0006 11.588 12.5358C11.7004 11.0711 12.9199 11.0166 13.3832 11.2039C13.8025 11.3953 14.1334 11.7391 14.3086 12.1654C14.4839 12.5918 14.4903 13.0689 14.3268 13.4998C14.1224 13.9256 13.5671 14.6478 13.8465 14.9986C14.1258 15.3495 15.2533 17.6284 17.1984 17.3695Z" fill="#00F3B6"/>
<path d="M15.5524 6.29492C13.9999 6.29506 12.4752 6.70677 11.1336 7.4881C9.79207 8.26942 8.68162 9.39242 7.91543 10.7427C7.14925 12.0929 6.75471 13.6222 6.77203 15.1746C6.78935 16.727 7.2179 18.247 8.01402 19.5799L6.7775 24.1615L11.1275 22.6626C12.2916 23.3453 13.5974 23.7503 14.9435 23.8463C16.2895 23.9422 17.6396 23.7266 18.8888 23.2161C20.138 22.7055 21.2527 21.9139 22.1462 20.9026C23.0397 19.8913 23.6881 18.6876 24.0408 17.385C24.3936 16.0824 24.4413 14.7161 24.1803 13.3921C23.9192 12.0681 23.3564 10.8221 22.5356 9.75094C21.7148 8.67978 20.6581 7.81229 19.4475 7.21586C18.237 6.61942 16.9053 6.3101 15.5558 6.31195L15.5524 6.29492ZM15.5524 22.1108C14.2831 22.1123 13.0373 21.7685 11.9484 21.1161L9.88754 21.7974L8.60334 22.213L8.99847 20.9322L9.62865 18.8884C8.78298 17.5742 8.39878 16.0159 8.53664 14.4592C8.67451 12.9025 9.3266 11.436 10.3901 10.2909C11.4536 9.1458 12.8679 8.38725 14.4102 8.13484C15.9524 7.88244 17.5348 8.15054 18.9079 8.89689C20.2809 9.64324 21.3664 10.8254 21.9934 12.2569C22.6203 13.6884 22.7529 15.2879 22.3703 16.8031C21.9876 18.3183 21.1116 19.663 19.8802 20.6253C18.6488 21.5876 17.1322 22.1126 15.5694 22.1176L15.5524 22.1108Z" fill="#00F3B6"/>
</svg>
